<?xml version="1.0" encoding="UTF-8"?><svg id="k" xmlns="http://www.w3.org/2000/svg" width="1280" height="1280" viewBox="0 0 1280 1280"><path d="m640,1280c-86.35,0-170.17-16.94-249.15-50.34-76.22-32.24-144.66-78.37-203.4-137.11-58.74-58.74-104.87-127.17-137.11-203.4C16.94,810.18,0,726.35,0,640s16.94-170.17,50.34-249.15c32.24-76.22,78.37-144.65,137.11-203.39,58.74-58.74,127.17-104.87,203.4-137.11C469.83,16.94,553.65,0,640,0s170.17,16.94,249.15,50.34c76.22,32.24,144.66,78.37,203.4,137.11,58.74,58.74,104.87,127.17,137.11,203.4,33.41,78.98,50.34,162.81,50.34,249.15s-16.94,170.18-50.34,249.15c-32.24,76.22-78.37,144.66-137.11,203.4-58.74,58.74-127.17,104.87-203.4,137.11-78.98,33.4-162.81,50.34-249.15,50.34Z" fill="#e6b681"/><path d="m640,1220.72c-78.65,0-154.95-15.41-226.81-45.8-69.39-29.35-131.69-71.35-185.2-124.86-53.5-53.5-95.51-115.81-124.86-185.2-30.39-71.85-45.8-148.16-45.8-226.81s15.41-154.95,45.8-226.81c29.35-69.39,71.36-131.7,124.86-185.2,53.5-53.5,115.81-95.51,185.2-124.86,71.85-30.39,148.16-45.8,226.81-45.8s154.95,15.41,226.81,45.8c69.39,29.35,131.69,71.35,185.2,124.86,53.5,53.5,95.51,115.81,124.86,185.2,30.39,71.85,45.8,148.16,45.8,226.81s-15.41,154.96-45.8,226.81c-29.35,69.39-71.36,131.7-124.86,185.2-53.5,53.5-115.81,95.51-185.2,124.86-71.85,30.39-148.16,45.8-226.81,45.8Z" fill="#f7c1b4"/><path d="m977.1,741.36c-21.94,16.93-53.81,37.94-95.59,54.82-41.98,16.97-79.66,24.01-107.28,27.05-3.99-.02-10.98-.61-18.53-4.38-11.67-5.82-17.12-15.46-18.92-19.04l-86.02-209.95,250.42-102.6,86.02,209.95c1.25,4.24,3.67,14.65-.12,26.84-2.62,8.4-7.1,14.16-9.96,17.3Z" fill="#fae9d3"/><ellipse cx="862.72" cy="750.31" rx="135.31" ry="67.5" transform="translate(-222.59 390.66) rotate(-22.68)" fill="#fae9d3"/><ellipse cx="789.51" cy="573.06" rx="141.72" ry="69.74" transform="translate(-159.91 348.73) rotate(-22.68)" fill="#677dce"/><rect x="645.08" y="551.56" width="283.38" height="29.88" transform="translate(-157.59 347.16) rotate(-22.68)" fill="#677dce"/><ellipse cx="781.75" cy="554.48" rx="141.72" ry="67.5" transform="translate(-153.35 344.29) rotate(-22.68)" fill="#b3c2ff"/><rect x="822.71" y="443.87" width="49.59" height="64.48" transform="translate(-118.04 363.59) rotate(-22.68)" fill="#948fef"/><ellipse cx="859.93" cy="505.86" rx="24.8" ry="14.72" transform="translate(-128.55 370.68) rotate(-22.68)" fill="#948fef"/><ellipse cx="836.26" cy="449.2" rx="24.8" ry="14.72" transform="translate(-108.54 357.17) rotate(-22.68)" fill="#b6b6ff"/><path d="m848.11,677.38c-4.63-7.95-13.27-11.85-20.99-9.5-7.64,2.32-12.65,10.24-12.21,19.33" fill="none" stroke="#c1823e" stroke-linecap="round" stroke-miterlimit="10" stroke-width="6.26"/><path d="m764.14,702.23c-4.63-7.95-13.27-11.85-20.99-9.5-7.64,2.32-12.65,10.24-12.21,19.33" fill="none" stroke="#c1823e" stroke-linecap="round" stroke-miterlimit="10" stroke-width="6.26"/><path d="m821.37,722.36c4.83,16.32-38.82,29.24-43.65,12.92l-4.52-15.27c-.71-2.38.65-4.89,3.04-5.59l35.02-10.36c2.38-.71,4.89.65,5.59,3.04l4.52,15.27Z" fill="#eb7a6a" stroke="#c1823e" stroke-linecap="round" stroke-miterlimit="10" stroke-width="3.73"/><ellipse cx="799.92" cy="730.25" rx="22.85" ry="10.08" transform="translate(-199.32 312.33) rotate(-19.7)" fill="#f9a49b"/><path d="m821.37,722.36c4.83,16.32-38.82,29.24-43.65,12.92l-4.52-15.27c-.71-2.38.65-4.89,3.04-5.59l35.02-10.36c2.38-.71,4.89.65,5.59,3.04l4.52,15.27Z" fill="none" stroke="#c1823e" stroke-miterlimit="10" stroke-width="3.73"/><path d="m982.58,717.07l.45-.19c3.9-1.63,4.68-8.65,1.75-15.68l-62.99-150.74-1.78,14.1,62.58,152.51Z" fill="#fff" opacity=".75"/><path d="m739.39,785.18c-1.31,2.18-1.62,4.72-.82,6.62,2.79,6.57,8.44,16.64,19.4,23.69,12.28,7.91,25.22,8.17,32.69,7.5,2.06-.18,4.15-1.66,5.46-3.84h0c2.68-4.47.87-9.47-3.32-9.16-7.3.54-17.14-.24-26.52-5.96-9.14-5.57-14.32-13.66-17.24-20.24-1.71-3.85-6.97-3.09-9.65,1.39h0Z" fill="#fff" opacity=".8"/><path d="m303,741.36c21.94,16.93,53.81,37.94,95.59,54.82,41.98,16.97,79.66,24.01,107.28,27.05,3.99-.02,10.98-.61,18.53-4.38,11.67-5.82,17.12-15.46,18.92-19.04l86.02-209.95-250.42-102.6-86.02,209.95c-1.25,4.24-3.67,14.65.12,26.84,2.62,8.4,7.1,14.16,9.96,17.3Z" fill="#fae9d3"/><ellipse cx="417.37" cy="750.31" rx="67.5" ry="135.31" transform="translate(-435.85 846.11) rotate(-67.32)" fill="#fae9d3"/><rect x="351.63" y="551.56" width="283.38" height="29.88" transform="translate(730.07 1279.41) rotate(-157.32)" fill="#677dce"/><circle cx="460.17" cy="701.1" r="12.27" fill="#c1823e"/><circle cx="534.02" cy="725.64" r="12.27" fill="#c1823e"/><path d="m473.46,722.64c-.38,10.96,5.86,20.38,15.14,22.92,9.18,2.51,19.27-2.3,24.6-11.75" fill="none" stroke="#c1823e" stroke-linecap="round" stroke-miterlimit="10" stroke-width="7.46"/><path d="m540.43,793.8c.86,2.4.67,4.95-.49,6.65-4.02,5.9-11.52,14.68-23.64,19.47-13.58,5.37-26.32,3.1-33.52,1-1.98-.58-3.75-2.43-4.61-4.83h0c-1.76-4.91.99-9.46,5.04-8.34,7.06,1.95,16.86,3.09,27.17-.69,10.04-3.68,16.71-10.62,20.85-16.49,2.42-3.44,7.44-1.67,9.2,3.24h0Z" fill="#fff" opacity=".8"/><path d="m324.45,541.58h10.73v188.53h0c-5.92,0-10.73-4.81-10.73-10.73v-177.8h0Z" transform="translate(289.74 -79.33) rotate(24.21)" fill="#fff" opacity=".75"/><ellipse cx="490.58" cy="573.06" rx="69.74" ry="141.72" transform="translate(-227.32 804.75) rotate(-67.32)" fill="#677dce"/><ellipse cx="498.35" cy="554.48" rx="67.5" ry="141.72" transform="translate(-205.41 800.5) rotate(-67.32)" fill="#b3c2ff"/><rect x="407.79" y="443.87" width="49.59" height="64.48" transform="translate(648.15 1082.2) rotate(-157.32)" fill="#df7f79"/><ellipse cx="420.16" cy="505.86" rx="14.72" ry="24.8" transform="translate(-208.59 698.48) rotate(-67.32)" fill="#df7f79"/><ellipse cx="443.83" cy="449.2" rx="14.72" ry="24.8" transform="translate(-141.77 685.52) rotate(-67.32)" fill="#ffb8b6"/><ellipse cx="438.28" cy="717.07" rx="7.7" ry="14.6" transform="translate(-392.33 844.98) rotate(-67.32)" fill="#ffc2e2"/><ellipse cx="534.33" cy="754.94" rx="7.7" ry="14.6" transform="translate(-368.25 956.87) rotate(-67.32)" fill="#ffc2e2"/><ellipse cx="733.73" cy="730.25" rx="14.6" ry="7.7" transform="translate(-139.67 174.56) rotate(-12.4)" fill="#ffc2e2"/><ellipse cx="853.77" cy="695.97" rx="14.6" ry="7.7" transform="translate(-129.51 199.53) rotate(-12.4)" fill="#ffc2e2"/><rect x="568.91" y="361.25" width="142.18" height="116.38" rx="12.27" ry="12.27" fill="#fff" stroke="#fff" stroke-miterlimit="10" stroke-width=".33"/><path d="m583.67,470.14c17.01,1.81,34.02,3.61,51.03,5.42-.76,3.08-4.32,15.99-17.22,25.24-9.29,6.66-18.92,8.19-25.48,8.28-3.13.04-5.1-3.37-3.44-6.02,2.29-3.67,4.55-8.98,4.21-15.41-.56-10.61-7.78-16.48-9.09-17.51Z" fill="#fff" stroke="#fff" stroke-miterlimit="10" stroke-width=".24"/><path d="m699.8,470.14c-17.01,1.81-34.02,3.61-51.03,5.42.76,3.08,4.32,15.99,17.22,25.24,9.29,6.66,18.92,8.19,25.48,8.28,3.13.04,5.1-3.37,3.44-6.02-2.29-3.67-4.55-8.98-4.21-15.41.56-10.61,7.78-16.48,9.09-17.51Z" fill="#fff" stroke="#fff" stroke-miterlimit="10" stroke-width=".24"/><path d="m670.74,425.98l-28,28c-1.56,1.56-4.09,1.56-5.65,0l-28-28c-22.81-22.81,8.02-53.63,30.82-30.82,23.12-23.12,53.95,7.7,30.82,30.82Z" fill="#ea4b9f"/><circle cx="1051.55" cy="566.5" r="58.24" fill="#c98573"/><circle cx="1030.11" cy="537.61" r="17.43" fill="#eed2c9"/><circle cx="1116.53" cy="703.86" r="58.24" fill="#c98573"/><circle cx="1095.08" cy="674.97" r="17.43" fill="#eed2c9"/><path d="m357.97,412.17c-14.67-22.03-33.35-47.04-48.72-66.58-17.41-22.13-23.85-24.81-28.01-26.71-3.84-1.5-7.07-3.48-11.46-9.06-24.16-30.7,39.91-81.44,52.26-91.15,23.26-18.3,54.85-38.31,74.45-13.39,9.1,11.56,12.81,35.76,11.46,55.23,20.49-8.7,37.56-4.37,49.01,10.19,28.24,35.89,4.37,103.41-43.59,141.15-18.73,14.74-38.46,21.86-54.3,1.73l-1.1-1.4Zm-38.96-123.65c3.67,5.51,7.59,10.49,11.35,15.28l5.18,6.58.16.2.47.6c31-27.94,32.64-50.86,25.58-59.83-1.73-2.19-6.12-1-11.47,3.21-10.91,8.58-23.64,22.48-31.27,33.96Zm47.48,54c-.67.85-1.74,2.02-2.98,2.99,4.66,6.34,10.41,14.08,12.45,16.67,2.2,2.79,4.6,5.42,7.52,8.29,3.4-2.03,6.9-4.78,10.4-7.54,14.62-11.5,42.56-39.94,31.27-54.3-6.12-7.78-24.2,3.55-32.03,9.7-11.94,9.39-17.69,15.21-26.84,24.34l.21-.16Z" fill="#fff"/><path d="m591.6,324.94c-61.6,7.68-100.47-37.32-107.03-89.94-8.01-64.2,36.87-110.7,88.33-117.12,58.74-7.33,107.05,32.92,113.8,87.05,6.91,55.38-26.22,111.42-95.1,120.01Zm-15.33-160.95c-38.21,4.77-53.36,33.5-49.56,63.96,3.77,30.21,29.56,50.77,60.49,46.91s59.48-28.9,55.4-61.62c-3.89-31.22-35.92-53.04-66.33-49.25Z" fill="#fff"/><path d="m709.6,285.43c12.42-23.37,25.57-51.68,35.47-74.49,11.21-25.83,10.51-32.77,10.2-37.33-.51-4.09-.3-7.87,2.53-14.39,15.55-35.84,90.62-3.54,105.04,2.71,27.15,11.78,59.76,30.08,47.13,59.17-5.86,13.5-25.39,28.25-43.16,36.3,17.38,13.9,21.68,30.98,14.3,47.97-18.18,41.89-88.93,52.95-144.92,28.65-21.87-9.49-37.5-23.46-27.3-46.97l.71-1.63Zm65.35-25.57c-1.06-.18-2.6-.58-4.05-1.2-3.37,7.11-7.45,15.85-8.76,18.88-1.41,3.26-2.59,6.62-3.72,10.55,3.4,2.03,7.49,3.8,11.57,5.57,17.06,7.4,55.36,18.49,62.63,1.74,3.94-9.08-14.62-19.62-23.75-23.58-13.94-6.05-21.79-8.35-34.17-12.06l.24.1Zm24.98-67.43c-3.11,5.84-5.63,11.66-8.05,17.25l-3.33,7.68-.1.23-.3.7c39.32,14.02,60.26,4.58,64.8-5.9,1.11-2.56-2.03-5.86-8.27-8.57-12.73-5.53-31.01-10.14-44.74-11.39Z" fill="#fff"/><path d="m937.45,454.71c1.4-1.1,10.66-9.02,20.94-19.75-5.46-7.37-13.26-16.9-21.66-27.62l-19.07-24.32c-14.07,8.37-22.78,14.54-31.36,21.27-9.38,7.36-22.57,9.05-32.1-3.11-8.73-11.13-8.33-25.42,2.65-34.03,19.56-15.35,159.8-107.04,206.52-47.48,28.13,35.86-28.64,102.03-49.28,124.21-18.97,20.21-33.53,33.3-49.3,45.67-9.18,7.2-26.2,5.24-32.34-2.59-9.7-12.37-4.16-25.03,5.02-32.24Zm22.77-96.76c9.98,13.14,21.51,29.07,29.03,39.48,1.45,1.86-.16-.21,1.29,1.65,20.69-20.89,26.93-38.43,20.78-46.26-6.95-8.86-26.43-6.57-51.11,5.13Z" fill="#fff"/><path d="m431.26,970.66c-26.79-32.15-28.28-33.59-29.75-35.36-15.87,12.62-36.38,28.82-52.82,42.51-14.02,11.68-27.74,23.71-39.71,36.08-8.31,6.92-27.61-3.93-30.85-7.82-7.36-8.83-3.91-21.58,5.95-29.8-.87.72,51.52-42.32,72.46-59.77,4.33-3.6,8.16-7.1,14.12-12.96-10.01-12.01-21.63-25.96-27.92-32.1-8.24-9.89-2.58-22.09,5.21-28.58,20.42-17.01,45.7,21.77,66.47,42.48,1.2,1.09,40.52,47.93,42.58,50.41,10.74,12.89,18.28,27.57,6.34,37.51-9.34,7.79-23.73,6-32.07-2.6Z" fill="#fff"/><path d="m506.12,1132.13c.59-1.46,4.19-11.67,7.35-24.48-7.38-3.21-17.5-7.02-28.59-11.47l-25.18-10.1c-7.08,12.69-11.03,21.3-14.63,30.29-3.94,9.83-13.27,17.01-25.85,11.95-11.52-4.62-17.47-15.75-12.85-27.24,8.22-20.49,75.15-153.33,136.82-128.58,37.13,14.9,22.73,90.91,16.67,117.12-5.65,23.95-11.04,40.47-17.66,56.99-3.86,9.62-17.7,15.71-25.81,12.46-12.8-5.14-14.11-17.31-10.25-26.93Zm-24.9-84.26c13.36,5.6,29.11,12.65,39.4,17.27,1.92.77-.21-.09,1.71.69,6.66-25.24,3.75-41.45-4.36-44.71-9.18-3.68-23.03,6.78-36.75,26.76Z" fill="#fff"/><path d="m643.22,1069.76c1.14,21.14,4.12,56.61,4.51,62.68,17.64-1.59,40.29-3.96,54.75-4.89,5.02-.77,9.35-1.51,13.94-1.8,11.01-.71,18.92,7.58,19.63,18.59.48,7.42-4.34,18.34-11.1,20.8-16.67,5.82-34.94,8.35-55.59,9.69-35.1,2.27-61.13,2.37-62.66-21.23-6.94-107.44-8.59-122.23-9.04-125.59l-.07-1.12c-1-15.51,3.26-27.97,19.55-29.03,9.41-.61,22.46,5.32,23.76,25.32l2.32,46.57Z" fill="#fff"/><path d="m846.89,956.33c3.11,5.49,1.65,11.76-3.44,31.21l.2-.11c-1.07,3.71-2.33,7.54-12.59,46.76,33.87,3.32,86.53,5.29,94.42,19.2,6.67,11.76,3.98,25.19-5.22,30.41-7.4,4.2-70.91-4.31-99.42-9.38,9.11,16.06,14.49,24.15,19.83,33.55,4.33,7.64,9.43,20.81-7.17,30.22-9.2,5.22-22.29,3.58-27.73-6.02l-69.02-121.66c-5.89-10.38,3.06-21.16,10.26-25.24,10.4-5.9,23.91-1.65,29.13,7.56,2.78,4.9,10,22.29,16.34,33.46,7.46-25.99,16.66-56.84,21.21-72.11,1.58-3.74,4.31-6.85,6.91-8.32,7.8-4.42,21.4,1.84,26.29,10.46Z" fill="#fff"/><path d="m953.32,861.2c-1.65,2.49-4.93,4.18-9.97,6.09-7.75,3.14-21.61,8.59-32.39,24.89-7.74,11.7-7.95,27.54.94,33.7,3.88,2.29,14.45-9.19,24.57-20.41,21.39-24.17,49.53-53.25,85.22-29.64,21.61,14.29,32.55,57.36,8.2,94.18-21.56,32.6-52.77,48.35-74.56,33.93-10.9-7.21-15.06-16.02-8.97-25.23,2.28-3.45,6.31-4.65,10.78-5.27,7.8-1.18,23.54-4.56,39.39-28.53,4.06-6.14,10.95-23.91-.32-31.36-6.2-4.1-18.15,8.67-28.53,20.27-20.75,23.21-48.01,51.77-84.08,27.91-28.93-19.13-25.66-64.1-7.78-91.14,11.54-17.45,22.1-27.28,36.54-35.65,10.47-6.03,23.72-4.43,31.8.91,11.08,7.33,15.37,15.96,9.16,25.35Z" fill="#fff"/><path d="m334.97,512.99c-6.67-11.12-25.88-39.62-62.42-52.5-3.52-1.24-17.27-5.88-36.06-6.3-44.99-1-76.65,23.16-84.95,29.7-8.54,6.72-34.77,27.37-41.8,58.14-3.07,13.44-2.03,26.4-1.94,27.42,1.14,13.07,4.96,23.01,7.4,28.39,8.03,17.73,19.89,27.91,22.73,30.26,1.72,1.43,26.57,21.41,58.6,18.36,38.11-3.63,68.44-38.15,80.57-68.37,11.37-28.31,5.57-49.87,22.83-61.29,10.97-7.26,24.73-6.11,35.05-3.81Z" fill="#ee8a9b"/><path d="m265.91,695.95c1.48-.59,1.82-2.53.63-3.6-3.52-3.17-8.47-7.03-14.79-10.35-10.19-5.36-18.66-6.55-23.94-7.24-3.08-.4-11.13-1.34-22.05.61-24.22,4.32-40.98,19.3-47.12,24.93-8.19,7.5-12.91,14.16-14.19,16-3.96,5.7-10.03,14.65-12.17,27.04-.43,2.51-1.35,8.88-.17,16.65,1.17,7.68,3.85,13.17,5.52,16.09,1.81,3.17,6.33,11.06,14.86,15.35,10.7,5.38,24.92,3.69,35.64-1.83,17.49-9,26.99-28.89,37.35-50.59,7.78-16.29,10.16-26.52,20.95-33.87,3.28-2.23,7.74-3.99,7.74-3.99,4.49-2.18,8.5-3.9,11.74-5.2Z" fill="#ee8a9b"/></svg>