<?xml version="1.0" encoding="UTF-8"?><svg id="h" xmlns="http://www.w3.org/2000/svg" width="1306.46" height="1280" viewBox="0 0 1306.46 1280"><ellipse cx="684.48" cy="668.32" rx="621.97" ry="611.68" fill="#9b7350"/><ellipse cx="621.97" cy="619.45" rx="621.97" ry="611.68" fill="#e2b897"/><path d="m1184.24,604.76c-15.76,263.72-255.32,606.81-627.18,606.81C231.76,1211.57,6.24,925.44,6.24,602.81S307.33,20.6,632.62,20.6c137.56,0,258.84,63.17,258.84,63.17,123.47,64.08,187.77,156.29,206.99,185.8,0,0,96.92,148.79,85.78,335.2Z" fill="#c7b8b9"/><path d="m1170.36,590.83c-15.57,266.73-252.32,613.74-619.79,613.74C229.11,1204.57,6.24,915.17,6.24,588.87S303.78,0,625.24,0c135.94,0,255.79,63.89,255.79,63.89,122.02,64.81,185.56,158.08,204.55,187.92,0,0,95.78,150.49,84.77,339.03Z" fill="#fbfbfb"/><ellipse cx="1179.75" cy="796.84" rx="29.87" ry="13.83" transform="translate(-240.37 696.63) rotate(-30)" fill="#965c35" opacity=".5" stroke="#965c35" stroke-miterlimit="10" stroke-width="2.79"/><ellipse cx="1204.86" cy="690.33" rx="13.83" ry="29.87" transform="translate(-77.99 1221.86) rotate(-52.32)" fill="#965c35" opacity=".5" stroke="#965c35" stroke-miterlimit="10" stroke-width="2.79"/><ellipse cx="1103.43" cy="910.84" rx="13.83" ry="19.75" transform="translate(-240.48 419.82) rotate(-19.47)" fill="#965c35" opacity=".5" stroke="#965c35" stroke-miterlimit="10" stroke-width="2.27"/><ellipse cx="1078.63" cy="1001.14" rx="13.83" ry="19.75" transform="translate(-271.99 416.71) rotate(-19.47)" fill="#965c35" opacity=".5" stroke="#965c35" stroke-miterlimit="10" stroke-width="2.27"/><ellipse cx="892.97" cy="1142.69" rx="19.75" ry="13.83" transform="translate(-512.63 785.71) rotate(-37.74)" fill="#965c35" opacity=".5" stroke="#965c35" stroke-miterlimit="10" stroke-width="2.27"/><ellipse cx="728.52" cy="1202.65" rx="19.75" ry="13.83" transform="translate(-583.74 697.58) rotate(-37.74)" fill="#965c35" opacity=".5" stroke="#965c35" stroke-miterlimit="10" stroke-width="2.27"/><ellipse cx="1194.35" cy="459.19" rx="13.83" ry="19.75" transform="translate(-84.75 424.3) rotate(-19.47)" fill="#965c35" opacity=".5" stroke="#965c35" stroke-miterlimit="10" stroke-width="2.27"/><ellipse cx="1211.98" cy="545.39" rx="13.83" ry="19.75" transform="translate(107.08 1284) rotate(-57.99)" fill="#965c35" opacity=".5" stroke="#965c35" stroke-miterlimit="10" stroke-width="2.27"/><ellipse cx="832.93" cy="1165.92" rx="13.83" ry="19.75" transform="translate(-597.23 1254.18) rotate(-57.99)" fill="#965c35" opacity=".5" stroke="#965c35" stroke-miterlimit="10" stroke-width="2.27"/><path d="m973.32,168.48c103.36,9.64,263.96,470.57,57.19,762.16-169.68,239.3-542.61,302.27-599.85,220.11-8.69-12.47-14.98-35.27,78.83-222.46,94.32-188.22,170.37-304.24,258.18-447.92,166.96-273.19,173.82-314.86,205.66-311.89Z" fill="#bc5957"/><path d="m616.08,27.24c-21.17-35.25-387.68,26.87-531.9,308.02-140.46,273.81,11.31,596.69,43.55,594.12,15.2-1.21,2.85-74.68,37.33-214.63,52.01-211.12,157.52-358.12,202.24-419.21C507.25,104.34,629.2,49.09,616.08,27.24Z" fill="#bc5957"/><path d="m334.13,549.41l-40.37-108.98c-2.29-6.19,2.73-12.88,9.24-12.3l5.17.46c4.15.37,8.07-2.32,9.37-6.42l16.23-51.41c2-6.32,9.71-8.56,14.37-4.18l37.98,35.73c3.13,2.94,7.97,3.04,11.4.23l4.24-3.48c5.05-4.15,12.45-1.7,13.88,4.6l9.01,39.55c.83,3.63,3.81,6.27,7.47,6.61l.8.07c4.03.37,7.86-2.15,9.27-6.07l29.71-82.81c2.62-7.29,12.33-8.31,15.91-1.68l6.76,12.53c1.44,2.66,4.14,4.33,7.15,4.42l2.3.07c1.95.06,3.89-.55,5.5-1.73l47.6-34.9c6-4.4,14.11,0,13.69,7.42l-3.16,56.08c-.14,2.42.7,4.77,2.31,6.5l3.5,3.74c1.53,1.64,3.63,2.59,5.88,2.66l11.46.35c7.21.22,10.8,8.77,6.09,14.52l-56.4,68.91c-2.36,2.88-2.78,6.88-1.07,10.08l.39.74c1.95,3.64,6.16,5.31,10.12,4.02l41.1-13.38c6.35-2.07,12.35,3.44,10.97,10.08l-.79,3.78c-.95,4.55,1.65,8.97,5.97,10.19l47.09,13.29c6.11,1.72,8.2,9.39,3.91,14.38l-33.61,39.12c-2.69,3.13-3.01,7.66-.77,10.98l4.46,6.63c3.54,5.26.46,12.67-5.8,13.97l-113.48,23.57c-3.25.68-5.92,3.15-6.89,6.4l-5.51,18.37c-1.79,5.95-8.75,8.5-13.6,4.98l-61.93-44.98c-3.13-2.27-7.42-2.11-10.53.4l-2.65,2.14c-1.01.82-1.84,1.84-2.44,3l-39.72,77.56c-2.33,4.55-7.84,6.34-12.13,3.94h0c-3.99-2.23-5.49-7.3-3.44-11.58l39.18-81.71c.41-.86.69-1.77.82-2.7l.24-1.68c.58-4.04-1.57-7.87-5.24-9.34l-63-25.21c-5.68-2.27-7.14-9.75-2.81-14.39l12.78-13.67c2.39-2.55,3.15-6.24,1.96-9.45Z" fill="#bc5957"/><path d="m335.2,536.32l-38.51-107.94c-2.19-6.13,2.82-12.83,9.2-12.32l5.07.4c4.07.32,7.95-2.39,9.26-6.48l16.46-51.29c2.02-6.31,9.62-8.61,14.15-4.3l36.91,35.13c3.04,2.89,7.79,2.94,11.19.11l4.2-3.5c5-4.18,12.24-1.82,13.58,4.43l8.44,39.23c.77,3.6,3.68,6.2,7.26,6.49l.79.06c3.95.32,7.74-2.22,9.17-6.13l30.02-82.64c2.64-7.27,12.19-8.39,15.64-1.83l6.51,12.39c1.38,2.63,4.02,4.26,6.97,4.33l2.26.05c1.92.04,3.82-.59,5.42-1.78l47.08-35.19c5.94-4.44,13.85-.15,13.37,7.23l-3.68,55.79c-.16,2.41.63,4.73,2.2,6.43l3.4,3.69c1.48,1.61,3.54,2.53,5.75,2.58l11.25.23c7.08.15,10.51,8.61,5.83,14.38l-56.08,69.09c-2.34,2.89-2.8,6.87-1.16,10.03l.38.73c1.88,3.6,6,5.22,9.9,3.89l40.48-13.73c6.26-2.12,12.09,3.3,10.67,9.91l-.81,3.76c-.98,4.53,1.52,8.9,5.76,10.07l46.09,12.73c5.98,1.65,7.95,9.26,3.69,14.26l-33.39,39.24c-2.67,3.14-3.03,7.64-.87,10.93l4.31,6.55c3.42,5.19.32,12.59-5.84,13.95l-111.63,24.61c-3.2.71-5.84,3.19-6.83,6.43l-5.6,18.32c-1.81,5.94-8.68,8.54-13.4,5.09l-60.33-44.09c-3.05-2.23-7.26-2.02-10.34.51l-2.62,2.15c-1,.82-1.83,1.85-2.42,3.01l-39.79,77.52c-2.33,4.55-7.76,6.38-11.95,4.04h0c-3.89-2.18-5.32-7.2-3.26-11.48l39.3-81.64c.41-.85.69-1.76.83-2.7l.25-1.67c.61-4.02-1.46-7.81-5.04-9.23l-61.58-24.42c-5.55-2.2-6.91-9.62-2.61-14.28l12.68-13.72c2.37-2.56,3.16-6.24,2.02-9.42Z" fill="#dd6761"/><path d="m959.32,154.48c103.36,9.64,263.96,470.57,57.19,762.16-169.68,239.3-542.61,302.27-599.85,220.11-8.69-12.47-14.98-35.27,78.83-222.46,94.32-188.22,170.37-304.24,258.18-447.92,166.96-273.19,173.82-314.86,205.66-311.89Z" fill="#dd6761"/><path d="m604.36,21.49c-21.17-35.25-387.68,26.87-531.9,308.02-140.46,273.81,11.31,596.69,43.55,594.12,15.2-1.21,2.85-74.68,37.33-214.63,52.01-211.12,157.52-358.12,202.24-419.21C495.53,98.59,617.48,43.34,604.36,21.49Z" fill="#dd6761"/><path d="m638.57,35.56c3.47-7.1,10.79-11.63,19.07-11.78,28.71-.51,76.41,2.96,128.83,27.1,58.76,27.05,94.7,66.83,112.84,90.93,4.99,6.64,5.94,15.2,2.47,22.32h0c-7.11,14.55-28.1,15.93-38.48,2.49-18.08-23.41-47.3-52.83-91.14-73.95-42.69-20.57-82.81-25.35-111.85-25.23-17,.07-28.85-17.32-21.73-31.88h0Z" fill="#ffe8d9"/><path d="m26.86,515.33c-6.7-4.19-9.32-13.74-6.79-24.89,8.75-38.65,28.06-103.14,71.68-175.4,48.89-81,104.39-132.12,136.85-158.2,8.93-7.18,18.69-9.04,25.4-4.84h0c13.73,8.58,8.44,36.77-9.75,51.67-31.67,25.95-73.58,67.31-111.09,127.81-36.53,58.91-54.82,113.28-64.11,152.4-5.44,22.9-28.45,40.04-42.19,31.45h0Z" fill="#ffe8d9" opacity=".5"/></svg>