<?xml version="1.0" encoding="UTF-8"?><svg id="g" xmlns="http://www.w3.org/2000/svg" width="1302.07" height="1280" xmlns:xlink="http://www.w3.org/1999/xlink" viewBox="0 0 1302.07 1280"><defs><linearGradient id="h" x1="889.07" y1="126.43" x2="867.37" y2="166.74" gradientUnits="userSpaceOnUse"><stop offset=".38" stop-color="#dd6761"/><stop offset=".84" stop-color="#dd6761"/></linearGradient></defs><ellipse cx="682.19" cy="670.38" rx="619.89" ry="609.62" fill="#9b7350"/><ellipse cx="619.89" cy="621.67" rx="619.89" ry="609.62" fill="#e2b897"/><path d="m1180.26,607.03c-15.71,262.84-254.47,604.77-625.07,604.77C230.99,1211.8,6.22,926.63,6.22,605.09S306.3,24.83,630.5,24.83c137.1,0,257.97,62.96,257.97,62.96,123.06,63.86,187.14,155.77,206.3,185.17,0,0,96.6,148.29,85.5,334.07Z" fill="#c7b8b9"/><path d="m1166.43,593.15c-15.52,265.84-251.47,611.67-617.71,611.67C228.34,1204.82,6.22,916.4,6.22,591.19S302.76,4.3,623.14,4.3c135.49,0,254.93,63.68,254.93,63.68,121.61,64.59,184.94,157.55,203.87,187.29,0,0,95.46,149.99,84.49,337.89Z" fill="#fbfbfb"/><path d="m154.07,349.95c-14.94-6.21-24.59-20.9-24.31-37.07.25-14.71,2.37-31.74,8.37-49.69,16.91-50.6,54.54-78.21,108.5-117.8,47.57-34.91,92.88-55.94,121.43-69.59,15.6-7.46,32.14-14.65,50.63-21.86,0,0,157.7-61.56,258.92-42.48,1.97.37,3.94.76,3.94.76,1.48.3,2.97.6,4.46.92,34,7.23,50.1,46.46,31.38,75.74l-221.91,347.15c-16.34,25.56-48.67,35.7-76.68,24.05-88.24-36.71-176.48-73.42-264.73-110.13Z" fill="#5586b7"/><path d="m987.15,252.34c-1.93-.58-3.71-1.58-5.37-2.73-32.36-22.4-72.1-46.96-119.11-70.36-44.82-22.31-86.44-38.69-122.45-50.79-3.85-1.29-7.39-3.52-9.87-6.68-.92-1.18-1.78-2.56-2.44-4.14-1.67-4.01-1.74-8.42.2-12.29l7.48-14.92c3.88-7.74,14.3-10.36,23.28-5.86,36.34,11.58,79.4,27.9,126.08,51.15,48.37,24.09,88.52,49.59,120.34,72.35,1.08.54,6.8,3.52,9.44,9.86,1.67,4.01,1.74,8.42-.2,12.29l-7.48,14.92c-3.4,6.78-11.82,9.63-19.9,7.21Z" fill="#844c4a"/><path d="m1061.37,422.9c-2.87-1.21-5.55-2.86-8.09-4.68-49.48-35.33-109.91-75.2-180.74-115.59-67.53-38.51-129.72-69.07-183.31-93.04-5.73-2.56-11.12-6.16-15.08-10.6-1.48-1.66-2.87-3.53-4.01-5.6-2.89-5.24-3.49-10.54-1.13-14.66l9.1-15.89c4.72-8.24,19.52-8.64,33.05-.89,54,23.43,118.27,54.3,188.6,94.42,72.87,41.57,134,82.67,182.75,118.29,1.63.93,10.25,6.01,14.82,14.29,2.89,5.24,3.49,10.54,1.13,14.66l-9.1,15.89c-4.14,7.22-16.01,8.42-27.99,3.39Z" fill="#844c4a"/><path d="m491.45,1202.41c-2.66-1.08-5.13-2.62-7.46-4.31-45.37-32.98-100.89-70.03-166.17-107.25-62.25-35.48-119.74-63.35-169.36-85.05-5.31-2.32-10.26-5.67-13.83-9.88-1.33-1.57-2.58-3.36-3.59-5.35-2.54-5.04-2.93-10.22-.57-14.34l9.1-15.89c4.72-8.24,18.66-9.13,31.13-1.99,50.02,21.15,109.46,49.25,174.29,86.23,67.17,38.31,123.31,76.54,167.98,109.83,1.5.86,9.45,5.54,13.46,13.52,2.54,5.04,2.93,10.22.57,14.34l-9.1,15.89c-4.14,7.22-15.35,8.8-26.46,4.27Z" fill="#844c4a"/><path d="m1082.07,564.95c-3.4-1.51-6.63-3.48-9.71-5.6-59.91-41.36-132.81-88.41-217.73-136.87-80.96-46.2-155.12-83.58-218.83-113.3-6.81-3.18-13.32-7.42-18.24-12.43-1.84-1.87-3.6-3.96-5.08-6.24-3.76-5.77-4.89-11.41-2.51-15.56l9.17-16.02c4.76-8.31,21.77-7.5,37.99,1.79,64.13,29.17,140.72,67.05,225.04,115.19,87.37,49.88,161.18,98.28,220.27,139.89,1.96,1.12,12.31,7.18,18.25,16.3,3.76,5.77,4.89,11.41,2.51,15.56l-9.17,16.02c-4.17,7.28-17.75,7.56-31.97,1.26Z" fill="#844c4a"/><path d="m1060.71,689.49c-3.69-1.67-7.21-3.81-10.57-6.1-65.49-44.56-145.06-95.43-237.51-148.21-88.14-50.32-168.69-91.35-237.79-124.15-7.39-3.51-14.49-8.09-19.93-13.4-2.03-1.98-3.99-4.18-5.66-6.57-4.23-6.04-5.66-11.85-3.28-16l9.17-16.02c4.76-8.31,22.94-6.83,40.6,3.28,69.54,32.27,152.68,73.9,244.49,126.33,95.12,54.31,175.71,106.6,240.34,151.38,2.13,1.22,13.4,7.81,20.09,17.36,4.23,6.04,5.66,11.85,3.28,16l-9.17,16.02c-4.17,7.28-18.65,7.05-34.05.07Z" fill="#844c4a"/><path d="m1006.51,788.69c-3.69-1.67-7.21-3.81-10.57-6.1-65.49-44.56-145.06-95.43-237.51-148.21-88.14-50.32-168.69-91.35-237.79-124.15-7.39-3.51-14.49-8.09-19.93-13.4-2.03-1.98-3.99-4.18-5.66-6.57-4.23-6.04-5.66-11.85-3.28-16l9.17-16.02c4.76-8.31,22.94-6.83,40.6,3.28,69.54,32.27,152.68,73.9,244.49,126.33,95.12,54.31,175.71,106.6,240.34,151.38,2.13,1.22,13.4,7.81,20.09,17.36,4.23,6.04,5.66,11.85,3.28,16l-9.17,16.02c-4.17,7.28-18.65,7.05-34.05.07Z" fill="#844c4a"/><path d="m658.29,1157.17c-4.32-2.03-8.48-4.54-12.48-7.19-77.84-51.63-172.16-110.95-281.25-173.26-104.01-59.41-198.67-108.52-279.69-148.16-8.67-4.24-17.09-9.58-23.68-15.54-2.46-2.23-4.86-4.68-6.94-7.3-5.27-6.63-7.34-12.81-4.96-16.97l9.17-16.02c4.76-8.31,25.52-5.36,46.36,6.59,81.48,39.11,179.14,89.06,287.47,150.95,112.24,64.12,207.83,125,284.71,176.8,2.51,1.44,15.83,9.2,24.17,19.69,5.27,6.63,7.34,12.81,4.97,16.97l-9.17,16.02c-4.17,7.28-20.63,5.91-38.67-2.57Z" fill="#844c4a"/><path d="m779.51,1097.8c-5.32-2.61-10.51-5.7-15.52-8.93-97.51-62.9-215.32-135.67-350.92-213.17-129.28-73.88-246.43-135.88-346.44-186.39-10.7-5.4-21.22-11.95-29.64-18.96-3.14-2.62-6.24-5.47-8.98-8.47-6.93-7.59-10.03-14.35-7.65-18.51l9.17-16.02c4.76-8.31,29.63-3,55.54,11.84,100.5,50,221.28,113.2,355.94,190.16,139.52,79.75,258.99,154.31,355.38,217.28,3.13,1.79,19.69,11.41,30.66,23.41,6.93,7.59,10.03,14.35,7.65,18.51l-9.17,16.02c-4.17,7.28-23.79,4.11-46.02-6.78Z" fill="#844c4a"/><path d="m955.16,897.84c-6.13-2.89-12.15-6.27-17.98-9.79-113.56-68.57-250.49-148.08-407.56-233.11-149.75-81.07-285.02-149.42-400.3-205.27-12.33-5.97-24.56-13.12-34.51-20.68-3.71-2.82-7.39-5.88-10.69-9.08-8.34-8.09-12.36-15.2-10.08-19.41l8.8-16.23c4.56-8.41,32.61-2.03,62.63,14.26,115.77,55.34,255.18,125.06,411.15,209.52,161.61,87.51,300.54,168.93,412.86,237.53,3.62,1.96,22.83,12.51,36.02,25.32,8.34,8.09,12.36,15.2,10.08,19.41l-8.8,16.23c-4,7.37-26.03,3.38-51.63-8.69Z" fill="#844c4a"/><path d="m898.17,1000.77c-6.13-2.89-12.15-6.27-17.98-9.79-113.56-68.57-250.49-148.08-407.56-233.11-149.75-81.07-285.02-149.42-400.3-205.27-12.33-5.97-24.56-13.12-34.51-20.68-3.71-2.82-7.39-5.88-10.69-9.08-8.34-8.09-12.36-15.2-10.08-19.41l8.8-16.23c4.56-8.41,32.61-2.03,62.63,14.26,115.77,55.34,255.18,125.06,411.15,209.52,161.61,87.51,300.54,168.93,412.86,237.53,3.62,1.96,22.83,12.51,36.02,25.32,8.34,8.09,12.36,15.2,10.08,19.41l-8.8,16.23c-4,7.37-26.03,3.38-51.63-8.69Z" fill="#844c4a"/><path d="m990.65,244.47c-1.99-.57-3.8-1.59-5.49-2.79-32.92-23.28-73.44-48.68-121.54-72.62-45.86-22.82-88.56-39.3-125.59-51.33-3.96-1.29-7.57-3.59-10.05-6.94-.92-1.25-1.77-2.71-2.41-4.41-1.62-4.29-1.55-9.07.58-13.31l8.21-16.37c4.25-8.49,15.15-11.64,24.34-7.04,37.38,11.45,81.58,27.83,129.34,51.61,49.48,24.64,90.4,51.04,122.75,74.73,1.11.56,6.95,3.61,9.5,10.4,1.62,4.29,1.55,9.07-.58,13.31l-8.21,16.37c-3.73,7.44-12.56,10.78-20.87,8.39Z" fill="url(#h)"/><path d="m1066.54,413.82c-2.87-1.21-5.55-2.86-8.09-4.68-49.48-35.33-109.91-75.2-180.74-115.59-67.53-38.51-129.72-69.07-183.31-93.04-5.73-2.56-11.12-6.16-15.08-10.6-1.48-1.66-2.87-3.53-4.01-5.6-2.89-5.24-3.49-10.54-1.13-14.66l9.1-15.89c4.72-8.24,19.52-8.64,33.05-.89,54,23.43,118.27,54.3,188.6,94.42,72.87,41.57,134,82.67,182.75,118.29,1.63.93,10.25,6.01,14.82,14.29,2.89,5.24,3.49,10.54,1.13,14.66l-9.1,15.89c-4.14,7.22-16.01,8.42-27.99,3.39Z" fill="#dd6761"/><path d="m1082.07,557.45c-3.4-1.51-6.63-3.48-9.71-5.6-59.91-41.36-132.81-88.41-217.73-136.87-80.96-46.2-155.12-83.58-218.83-113.3-6.81-3.18-13.32-7.42-18.24-12.43-1.84-1.87-3.6-3.96-5.08-6.24-3.76-5.77-4.89-11.41-2.51-15.56l9.17-16.02c4.76-8.31,21.77-7.5,37.99,1.79,64.13,29.17,140.72,67.05,225.04,115.19,87.37,49.88,161.18,98.28,220.27,139.89,1.96,1.12,12.31,7.18,18.25,16.3,3.76,5.77,4.89,11.41,2.51,15.56l-9.17,16.02c-4.17,7.28-17.75,7.56-31.97,1.26Z" fill="#dd6761"/><path d="m1062.31,677.91c-3.69-1.67-7.21-3.81-10.57-6.1-65.49-44.56-145.06-95.43-237.51-148.21-88.14-50.32-168.69-91.35-237.79-124.15-7.39-3.51-14.49-8.09-19.93-13.4-2.03-1.98-3.99-4.18-5.66-6.57-4.23-6.04-5.66-11.85-3.28-16l9.17-16.02c4.76-8.31,22.94-6.83,40.6,3.28,69.54,32.27,152.68,73.9,244.49,126.33,95.12,54.31,175.71,106.6,240.34,151.38,2.13,1.22,13.4,7.81,20.09,17.36,4.23,6.04,5.66,11.85,3.28,16l-9.17,16.02c-4.17,7.28-18.65,7.05-34.05.07Z" fill="#dd6761"/><path d="m1006.51,778.73c-3.69-1.67-7.21-3.81-10.57-6.1-65.49-44.56-145.06-95.43-237.51-148.21-88.14-50.32-168.69-91.35-237.79-124.15-7.39-3.51-14.49-8.09-19.93-13.4-2.03-1.98-3.99-4.18-5.66-6.57-4.23-6.04-5.66-11.85-3.28-16l9.17-16.02c4.76-8.31,22.94-6.83,40.6,3.28,69.54,32.27,152.68,73.9,244.49,126.33,95.12,54.31,175.71,106.6,240.34,151.38,2.13,1.22,13.4,7.81,20.09,17.36,4.23,6.04,5.66,11.85,3.28,16l-9.17,16.02c-4.17,7.28-18.65,7.05-34.05.07Z" fill="#dd6761"/><path d="m956.76,890.61c-6.13-2.89-12.15-6.27-17.98-9.79-113.56-68.57-250.49-148.08-407.56-233.11-149.75-81.07-285.02-149.42-400.3-205.27-12.33-5.97-24.56-13.12-34.51-20.68-3.71-2.82-7.39-5.88-10.69-9.08-8.34-8.09-12.36-15.2-10.08-19.41l8.8-16.23c4.56-8.41,32.61-2.03,62.63,14.26,115.77,55.34,255.18,125.06,411.15,209.52,161.61,87.51,300.54,168.93,412.86,237.53,3.62,1.96,22.83,12.51,36.02,25.32,8.34,8.09,12.36,15.2,10.08,19.41l-8.8,16.23c-4,7.37-26.03,3.38-51.63-8.69Z" fill="#dd6761"/><path d="m900.96,994.57c-6.13-2.89-12.15-6.27-17.98-9.79-113.56-68.57-250.49-148.08-407.56-233.11-149.75-81.07-285.02-149.42-400.3-205.27-12.33-5.97-24.56-13.12-34.51-20.68-3.71-2.82-7.39-5.88-10.69-9.08-8.34-8.09-12.36-15.2-10.08-19.41l8.8-16.23c4.56-8.41,32.61-2.03,62.63,14.26,115.77,55.34,255.18,125.06,411.15,209.52,161.61,87.51,300.54,168.93,412.86,237.53,3.62,1.96,22.83,12.51,36.02,25.32,8.34,8.09,12.36,15.2,10.08,19.41l-8.8,16.23c-4,7.37-26.03,3.38-51.63-8.69Z" fill="#dd6761"/><path d="m779.51,1090.54c-5.32-2.61-10.51-5.7-15.52-8.93-97.51-62.9-215.32-135.67-350.92-213.17-129.28-73.88-246.43-135.88-346.44-186.39-10.7-5.4-21.22-11.95-29.64-18.96-3.14-2.62-6.24-5.47-8.98-8.47-6.93-7.59-10.03-14.35-7.65-18.51l9.17-16.02c4.76-8.31,29.63-3,55.54,11.84,100.5,50,221.28,113.2,355.94,190.16,139.52,79.75,258.99,154.31,355.38,217.28,3.13,1.79,19.69,11.41,30.66,23.41,6.93,7.59,10.03,14.35,7.65,18.51l-9.17,16.02c-4.17,7.28-23.79,4.11-46.02-6.78Z" fill="#dd6761"/><path d="m658.62,1149.93c-4.32-2.03-8.48-4.54-12.48-7.19-77.84-51.63-172.16-110.95-281.25-173.26-104.01-59.41-198.67-108.52-279.69-148.16-8.67-4.24-17.09-9.58-23.68-15.54-2.46-2.23-4.86-4.68-6.94-7.3-5.27-6.63-7.34-12.81-4.96-16.97l9.17-16.02c4.76-8.31,25.52-5.36,46.36,6.59,81.48,39.11,179.14,89.06,287.47,150.95,112.24,64.12,207.83,125,284.71,176.8,2.51,1.44,15.83,9.2,24.17,19.69,5.27,6.63,7.34,12.81,4.97,16.97l-9.17,16.02c-4.17,7.28-20.63,5.91-38.67-2.57Z" fill="#dd6761"/><path d="m490.92,1192.26c-2.73-1.13-5.28-2.7-7.68-4.44-46.8-33.8-104.03-71.83-171.25-110.16-64.09-36.54-123.22-65.34-174.22-87.84-5.45-2.41-10.56-5.84-14.26-10.13-1.38-1.6-2.68-3.42-3.74-5.44-2.66-5.11-3.13-10.33-.77-14.45l9.1-15.89c4.72-8.24,18.96-8.96,31.8-1.6,51.41,21.94,112.53,51.01,179.28,89.08,69.16,39.45,127.04,78.68,173.13,112.78,1.55.89,9.73,5.7,13.94,13.79,2.66,5.11,3.13,10.33.77,14.45l-9.1,15.89c-4.14,7.22-15.58,8.67-26.99,3.96Z" fill="#dd6761"/><path d="m150.8,342.17c-14.94-6.21-24.59-20.9-24.31-37.07.25-14.71,2.37-31.74,8.37-49.69,16.91-50.6,54.54-78.21,108.5-117.8,47.57-34.91,92.88-55.94,121.43-69.59,15.6-7.46,32.14-14.65,50.63-21.86,0,0,157.7-61.56,258.92-42.48,1.97.37,3.94.76,3.94.76,1.48.3,2.97.6,4.46.92,34,7.23,50.1,46.46,31.38,75.74l-221.91,347.15c-16.34,25.56-48.67,35.7-76.68,24.05-88.24-36.71-176.48-73.42-264.73-110.13Z" fill="#619bdd"/><circle cx="663.26" cy="29.68" r="21.89" fill="#fff"/><circle cx="550.35" cy="29.68" r="21.89" fill="#fff"/><circle cx="586.84" cy="89.44" r="21.89" fill="#fff"/><circle cx="663.26" cy="89.44" r="21.89" fill="#fff"/><circle cx="455.55" cy="60.1" r="21.89" fill="#fff"/><circle cx="499.33" cy="112.18" r="21.89" fill="#fff"/><circle cx="608.73" cy="156.39" r="21.89" fill="#fff"/><circle cx="348.32" cy="101.98" r="21.89" fill="#fff"/><circle cx="402.36" cy="147.31" r="21.89" fill="#fff"/><circle cx="512.5" cy="181.8" r="21.89" fill="#fff"/><circle cx="424.25" cy="219.01" r="21.89" fill="#fff"/><circle cx="534.39" cy="253.7" r="21.89" fill="#fff"/><circle cx="290.39" cy="159.91" r="21.89" fill="#fff"/><circle cx="214.44" cy="184.18" r="21.89" fill="#fff"/><circle cx="326.43" cy="231.81" r="21.89" fill="#fff"/><circle cx="465.93" cy="282.1" r="21.89" fill="#fff"/><circle cx="490.61" cy="342.09" r="21.89" fill="#fff"/><circle cx="370.21" cy="300.58" r="21.89" fill="#fff"/><circle cx="236.33" cy="245.7" r="21.89" fill="#fff"/><circle cx="160.38" cy="282.1" r="21.89" fill="#fff"/><circle cx="265.29" cy="320.46" r="21.89" fill="#fff"/><circle cx="399.6" cy="369.35" r="21.89" fill="#fff"/><ellipse cx="1181.15" cy="789.39" rx="29.77" ry="13.78" transform="translate(-236.45 696.33) rotate(-30)" fill="#965c35" opacity=".5" stroke="#965c35" stroke-miterlimit="10" stroke-width="2.78"/><ellipse cx="1206.17" cy="683.23" rx="13.78" ry="29.77" transform="translate(-71.86 1220.15) rotate(-52.32)" fill="#965c35" opacity=".5" stroke="#965c35" stroke-miterlimit="10" stroke-width="2.78"/><ellipse cx="1105.09" cy="903" rx="13.78" ry="19.68" transform="translate(-237.77 419.92) rotate(-19.47)" fill="#965c35" opacity=".5" stroke="#965c35" stroke-miterlimit="10" stroke-width="2.26"/><ellipse cx="1080.37" cy="993" rx="13.78" ry="19.68" transform="translate(-269.18 416.83) rotate(-19.47)" fill="#965c35" opacity=".5" stroke="#965c35" stroke-miterlimit="10" stroke-width="2.26"/><ellipse cx="895.34" cy="1134.07" rx="19.68" ry="13.78" transform="translate(-506.85 785.35) rotate(-37.74)" fill="#965c35" opacity=".5" stroke="#965c35" stroke-miterlimit="10" stroke-width="2.26"/><ellipse cx="731.44" cy="1193.83" rx="19.68" ry="13.78" transform="translate(-577.73 697.53) rotate(-37.74)" fill="#965c35" opacity=".5" stroke="#965c35" stroke-miterlimit="10" stroke-width="2.26"/><ellipse cx="1195.71" cy="452.86" rx="13.78" ry="19.68" transform="translate(-82.57 424.39) rotate(-19.47)" fill="#965c35" opacity=".5" stroke="#965c35" stroke-miterlimit="10" stroke-width="2.26"/><ellipse cx="1213.27" cy="538.78" rx="13.78" ry="19.68" transform="translate(113.29 1281.99) rotate(-57.99)" fill="#965c35" opacity=".5" stroke="#965c35" stroke-miterlimit="10" stroke-width="2.26"/><ellipse cx="835.5" cy="1157.22" rx="13.78" ry="19.68" transform="translate(-588.65 1252.27) rotate(-57.99)" fill="#965c35" opacity=".5" stroke="#965c35" stroke-miterlimit="10" stroke-width="2.26"/><path d="m1126.16,719.3c3.42,1.91,4.34,7.66,2.38,14.99-6.78,25.41-20.64,68.33-48.11,118.85-30.79,56.63-63.61,95.09-82.59,115.17-5.23,5.53-10.62,7.78-14.05,5.87h0c-7-3.91-2.65-22.32,8-33.76,18.55-19.91,43.48-50.7,67.02-93.11,22.92-41.29,35.7-77.7,42.8-103.47,4.15-15.08,17.54-28.47,24.56-24.55h0Z" fill="#ffe8d9"/></svg>